<svg xmlns="http://www.w3.org/2000/svg" viewBox="0 0 185.208 52.917" version="1.1" id="svg8">
  <defs id="defs2">
    <linearGradient id="id0" gradientUnits="userSpaceOnUse" x1="4024.8" y1="1433.12" x2="4024.8" y2="3521.03">
      <stop offset="0" id="stop139" stop-opacity="1" stop-color="#26c5da"/>
      <stop offset=".902" id="stop141" stop-opacity="1" stop-color="#3475ee"/>
      <stop offset="1" id="stop143" stop-opacity="1" stop-color="#3572ef"/>
    </linearGradient>
    <linearGradient id="id1" gradientUnits="userSpaceOnUse" x1="3158.58" y1="0" x2="3158.58" y2="3441.99">
      <stop offset="0" id="stop146" stop-opacity="1" stop-color="#26c5da"/>
      <stop offset="1" id="stop148" stop-opacity="1" stop-color="#3572ef"/>
    </linearGradient>
    <linearGradient id="id2" gradientUnits="userSpaceOnUse" x1="3300.3" y1="1772.76" x2="3300.3" y2="3179.93">
      <stop offset="0" id="stop151" stop-opacity="1" stop-color="#22e0d4"/>
      <stop offset="1" id="stop153" stop-opacity="1" stop-color="#3572ef"/>
    </linearGradient>
    <linearGradient id="id3" gradientUnits="userSpaceOnUse" x1="4543.98" y1="1203.83" x2="4659.41" y2="3454.39">
      <stop offset="0" id="stop156" stop-opacity="1" stop-color="#29b2de"/>
      <stop offset="1" id="stop158" stop-opacity="1" stop-color="#22e0d4"/>
    </linearGradient>
    <linearGradient id="id0-8" gradientUnits="userSpaceOnUse" x1="4024.8" y1="1433.12" x2="4024.8" y2="3521.03">
      <stop offset="0" id="stop304" stop-opacity="1" stop-color="#26c5da"/>
      <stop offset=".902" id="stop306" stop-opacity="1" stop-color="#3475ee"/>
      <stop offset="1" id="stop308" stop-opacity="1" stop-color="#3572ef"/>
    </linearGradient>
    <linearGradient id="id1-8" gradientUnits="userSpaceOnUse" x1="3158.58" y1="0" x2="3158.58" y2="3441.99">
      <stop offset="0" id="stop311" stop-opacity="1" stop-color="#26c5da"/>
      <stop offset="1" id="stop313" stop-opacity="1" stop-color="#3572ef"/>
    </linearGradient>
    <linearGradient id="id2-9" gradientUnits="userSpaceOnUse" x1="3300.3" y1="1772.76" x2="3300.3" y2="3179.93">
      <stop offset="0" id="stop316" stop-opacity="1" stop-color="#22e0d4"/>
      <stop offset="1" id="stop318" stop-opacity="1" stop-color="#3572ef"/>
    </linearGradient>
    <linearGradient id="id3-7" gradientUnits="userSpaceOnUse" x1="4543.98" y1="1203.83" x2="4659.41" y2="3454.39">
      <stop offset="0" id="stop321" stop-opacity="1" stop-color="#29b2de"/>
      <stop offset="1" id="stop323" stop-opacity="1" stop-color="#22e0d4"/>
    </linearGradient>
    <style type="text/css" id="style137">
      <![CDATA[.fil5{fill:#222E37;fill-rule:nonzero}]]>
    </style>
    <style type="text/css" id="style302">
      <![CDATA[.fil5{fill:#222E37;fill-rule:nonzero}]]>
    </style>
  </defs>
  <g id="layer2" display="inline">
    <g id="g372" transform="matrix(.01325 0 0 .01325 38.776 8.454)" clip-rule="evenodd" opacity=".5" fill-rule="evenodd" image-rendering="optimizeQuality" shape-rendering="geometricPrecision" text-rendering="geometricPrecision">
      <g id="Layer_x0020_1" transform="translate(77.39 -421.869)">
        <g id="logo.pdf">
          <path d="M2401.85 3048.48s316.79-203.83 660.95-447.27c295.68-209.15 611.71-447.7 770.1-623.18-.01-.77-.01-1.54-.01-2.31 0-112.09 90.87-202.96 202.95-202.96 112.09 0 202.95 90.87 202.95 202.96s-90.87 202.95-202.95 202.95c-36.81 0-71.32-9.79-101.08-26.92-145.11 62.58-433.67 205.05-840.22 490.72-194.6 136.74-426.18 302.62-670.75 514.93-46.01 16.01-75.98 22.55-94.21 22.55-81.74.01 72.27-131.46 72.27-131.46z" id="path329" fill="url(#id2-9)"/>
          <path d="M5551.8 3454.39c-54.21 0-105.18-21.11-143.51-59.45-38.33-38.33-59.44-89.3-59.44-143.51 0-14.05 1.44-28.07 4.28-41.67-44.36-164.55-143.49-441.21-363.79-824.7l71.87-32.22c176.14 258.38 363.63 491.64 573.16 713.14 35.35 15.77 65.37 41.21 86.79 73.58 21.97 33.2 33.59 71.88 33.59 111.87 0 54.21-21.11 105.18-59.44 143.51-38.34 38.34-89.3 59.45-143.51 59.45zm-851.38-1525.16c-292.98-424.36-665.22-869.99-1106.4-1324.51-13.34-15.2-22.51-28.66-27.25-40.02-4.57-10.96-5.17-20.32-1.78-27.81 7.73-17.08 35.72-25.38 85.57-25.38 93.4 0 250.69 29.38 417.22 60.49 58.97 11.02 119.93 22.41 179.29 32.71.22 1.24 23.8 130.18 96.54 345.55 67.21 198.98 191.38 514.8 401.25 889.32 9.1 16.24 18.28 32.5 27.29 48.32l-71.75 41.31h-.01z" id="path331" fill="url(#id3-7)"/>
          <path d="M2157.24 3368.09c-89.02 26.33-119.2 53.17-119.2 53.17l176.73-276.13s1658.15-452.04 3116.47-1438.75c32.54-156.03 170.85-273.26 336.54-273.26 189.86 0 343.78 153.92 343.78 343.78 0 189.87-153.92 343.78-343.78 343.78-57.19 0-111.13-13.97-158.57-38.67-482.52 80.38-1640.08 371.28-3294.44 1416.57-24.74 15.63-42.89 22.46-55.75 22.46-42.67 0-27.23-75.1-1.77-152.95zm51.15-141.09c6.06-17.43 8.98-28.45 6.37-29.49-1.22-.4-2.31-.59-3.26-.59-7.63 0-6.91 12.33-3.11 30.08z" id="path333" fill="url(#id0-8)"/>
          <path d="M2020.36 3230.64s393.7-281.36 875.11-1230.51c182.04-358.91 381.75-812.02 570.84-1384.23-25.26-55.11-39.34-116.4-39.34-181 0-240.18 194.72-434.9 434.91-434.9 240.19 0 434.91 194.72 434.91 434.9 0 235.36-186.95 427.05-420.45 434.68-1.32 11.68-2.72 23.59-4.2 35.63 0 0-380.47 355.18-817.61 1062.02-235.94 381.48-516.55 840.95-699.07 1464.6-2.06 7.03-6.65 10.17-13.31 10.17-51.35.01-226.19-185.95-321.79-211.35z" id="path335" fill="url(#id1-8)"/>
          <path d="M2213.38 3056.77c139.54 0 252.66 113.12 252.66 252.66s-113.12 252.66-252.66 252.66-252.66-113.12-252.66-252.66 113.12-252.66 252.66-252.66z" id="path337" fill="#337aec" fill-rule="nonzero"/>
        </g>
      </g>
    </g>
  </g>
  <g id="layer1">
    <g aria-label="TYPESCRIPT TEMPLATE" id="text12" style="line-height:1.25;-inkscape-font-specification:'sans-serif, Normal';font-variant-ligatures:normal;font-variant-caps:normal;font-variant-numeric:normal;font-variant-east-asian:normal" font-style="normal" font-variant="normal" font-weight="400" font-stretch="normal" font-size="14.111" font-family="Proxima Nova A" fill="#000" fill-opacity="1" stroke="none" stroke-width=".265">
      <path d="M19.029 31.157h2.018V23.51h2.737v-1.764h-7.507v1.764h2.752z" style="-inkscape-font-specification:'Proxima Nova A, Bold';font-variant-ligatures:normal;font-variant-caps:normal;font-variant-numeric:normal;font-variant-east-asian:normal" id="path94" font-weight="700"/>
      <path d="M27.693 31.157h2.004v-3.852l3.598-5.56H31.01l-2.314 3.782-2.342-3.782h-2.286l3.626 5.56z" style="-inkscape-font-specification:'Proxima Nova A, Bold';font-variant-ligatures:normal;font-variant-caps:normal;font-variant-numeric:normal;font-variant-east-asian:normal" id="path96" font-weight="700"/>
      <path d="M34.17 31.157h2.004v-3.372h2.399c2.032 0 3.16-1.369 3.16-3.006 0-1.65-1.114-3.034-3.16-3.034H34.17zm5.518-6.392c0 .79-.593 1.298-1.383 1.298h-2.131v-2.596h2.13c.791 0 1.384.522 1.384 1.298z" style="-inkscape-font-specification:'Proxima Nova A, Bold';font-variant-ligatures:normal;font-variant-caps:normal;font-variant-numeric:normal;font-variant-east-asian:normal" id="path98" font-weight="700"/>
      <path d="M42.976 31.157h6.66v-1.735h-4.657v-2.188h4.558v-1.721H44.98v-2.046h4.657v-1.722h-6.66z" style="-inkscape-font-specification:'Proxima Nova A, Bold';font-variant-ligatures:normal;font-variant-caps:normal;font-variant-numeric:normal;font-variant-east-asian:normal" id="path100" font-weight="700"/>
      <path d="M50.553 29.83c.89.89 2.187 1.497 3.994 1.497 2.54 0 3.767-1.299 3.767-3.02 0-2.089-1.975-2.554-3.528-2.907-1.086-.254-1.876-.452-1.876-1.087 0-.564.48-.96 1.383-.96.917 0 1.933.325 2.695 1.031l1.115-1.468c-.932-.86-2.174-1.312-3.67-1.312-2.215 0-3.57 1.27-3.57 2.836 0 2.103 1.976 2.526 3.514 2.88 1.087.253 1.905.493 1.905 1.199 0 .536-.536 1.058-1.637 1.058a4.127 4.127 0 01-2.991-1.27z" style="-inkscape-font-specification:'Proxima Nova A, Bold';font-variant-ligatures:normal;font-variant-caps:normal;font-variant-numeric:normal;font-variant-east-asian:normal" id="path102" font-weight="700"/>
      <path d="M64.156 31.327c2.145 0 3.33-1.143 4.008-2.315l-1.722-.832a2.551 2.551 0 01-2.286 1.369c-1.637 0-2.878-1.313-2.878-3.09 0-1.779 1.241-3.091 2.878-3.091 1.044 0 1.891.607 2.286 1.369l1.722-.847c-.663-1.171-1.863-2.3-4.008-2.3-2.751 0-4.939 1.976-4.939 4.868 0 2.893 2.188 4.869 4.94 4.869z" style="-inkscape-font-specification:'Proxima Nova A, Bold';font-variant-ligatures:normal;font-variant-caps:normal;font-variant-numeric:normal;font-variant-east-asian:normal" id="path104" font-weight="700"/>
      <path d="M74.683 31.157h2.3l-2.116-3.584c1.016-.24 2.06-1.129 2.06-2.794 0-1.75-1.2-3.034-3.161-3.034h-4.403v9.412h2.004v-3.372h1.468zm.198-6.392c0 .79-.607 1.298-1.411 1.298h-2.103v-2.596h2.103c.804 0 1.41.508 1.41 1.298z" style="-inkscape-font-specification:'Proxima Nova A, Bold';font-variant-ligatures:normal;font-variant-caps:normal;font-variant-numeric:normal;font-variant-east-asian:normal" id="path106" font-weight="700"/>
      <path d="M78.437 31.157h2.003v-9.412h-2.003z" style="-inkscape-font-specification:'Proxima Nova A, Bold';font-variant-ligatures:normal;font-variant-caps:normal;font-variant-numeric:normal;font-variant-east-asian:normal" id="path108" font-weight="700"/>
      <path d="M82.303 31.157h2.004v-3.372h2.399c2.032 0 3.16-1.369 3.16-3.006 0-1.65-1.114-3.034-3.16-3.034h-4.403zm5.518-6.392c0 .79-.593 1.298-1.383 1.298h-2.131v-2.596h2.13c.79 0 1.384.522 1.384 1.298z" style="-inkscape-font-specification:'Proxima Nova A, Bold';font-variant-ligatures:normal;font-variant-caps:normal;font-variant-numeric:normal;font-variant-east-asian:normal" id="path110" font-weight="700"/>
      <path d="M93.281 31.157H95.3V23.51h2.738v-1.764H90.53v1.764h2.751z" style="-inkscape-font-specification:'Proxima Nova A, Bold';font-variant-ligatures:normal;font-variant-caps:normal;font-variant-numeric:normal;font-variant-east-asian:normal" id="path112" font-weight="700"/>
      <path d="M105.742 31.157h1.17V22.79h2.992v-1.044h-7.14v1.044h2.978z" style="-inkscape-font-specification:'Proxima Nova A, Normal';font-variant-ligatures:normal;font-variant-caps:normal;font-variant-numeric:normal;font-variant-east-asian:normal" id="path114" font-weight="400"/>
      <path d="M111.457 31.157h6.166v-1.044h-4.995v-3.245h4.896v-1.045h-4.896V22.79h4.995v-1.044h-6.166z" style="-inkscape-font-specification:'Proxima Nova A, Normal';font-variant-ligatures:normal;font-variant-caps:normal;font-variant-numeric:normal;font-variant-east-asian:normal" id="path116" font-weight="400"/>
      <path d="M127.53 31.157h1.17v-9.412h-1.679l-2.935 7.169-2.921-7.169h-1.68v9.412h1.172v-7.831l3.19 7.831h.479l3.203-7.831z" style="-inkscape-font-specification:'Proxima Nova A, Normal';font-variant-ligatures:normal;font-variant-caps:normal;font-variant-numeric:normal;font-variant-east-asian:normal" id="path118" font-weight="400"/>
      <path d="M130.902 31.157h1.17v-3.74h2.611c1.863 0 2.95-1.297 2.95-2.835 0-1.539-1.059-2.837-2.95-2.837h-3.781zm5.517-6.575c0 1.058-.762 1.792-1.877 1.792h-2.47v-3.585h2.47c1.115 0 1.877.734 1.877 1.793z" style="-inkscape-font-specification:'Proxima Nova A, Normal';font-variant-ligatures:normal;font-variant-caps:normal;font-variant-numeric:normal;font-variant-east-asian:normal" id="path120" font-weight="400"/>
      <path d="M139.185 31.157h5.545v-1.044h-4.374v-8.368h-1.171z" style="-inkscape-font-specification:'Proxima Nova A, Normal';font-variant-ligatures:normal;font-variant-caps:normal;font-variant-numeric:normal;font-variant-east-asian:normal" id="path122" font-weight="400"/>
      <path d="M153.14 31.157h1.299l-3.796-9.412h-1.453l-3.782 9.412h1.298l.833-2.088h4.77zm-3.217-8.368l2.032 5.236h-4.078z" style="-inkscape-font-specification:'Proxima Nova A, Normal';font-variant-ligatures:normal;font-variant-caps:normal;font-variant-numeric:normal;font-variant-east-asian:normal" id="path124" font-weight="400"/>
      <path d="M157.05 31.157h1.17V22.79h2.992v-1.044h-7.14v1.044h2.977z" style="-inkscape-font-specification:'Proxima Nova A, Normal';font-variant-ligatures:normal;font-variant-caps:normal;font-variant-numeric:normal;font-variant-east-asian:normal" id="path126" font-weight="400"/>
      <path d="M162.764 31.157h6.167v-1.044h-4.995v-3.245h4.896v-1.045h-4.896V22.79h4.995v-1.044h-6.167z" style="-inkscape-font-specification:'Proxima Nova A, Normal';font-variant-ligatures:normal;font-variant-caps:normal;font-variant-numeric:normal;font-variant-east-asian:normal" id="path128" font-weight="400"/>
    </g>
  </g>
</svg>
